HIERARCHY
ROOT hip
{
  OFFSET 0 0 0
  CHANNELS 6 Xposition Yposition Zposition Zrotation Yrotation Xrotation
  JOINT abdomen
  {
    OFFSET 0 20.6881 -0.73152
    CHANNELS 3 Zrotation Xrotation Yrotation
    JOINT chest
    {
      OFFSET 0 11.7043 -0.48768
      CHANNELS 3 Zrotation Xrotation Yrotation
      JOINT neck
      {
        OFFSET 0 22.1894 -2.19456
        CHANNELS 3 Zrotation Xrotation Yrotation
        JOINT head
        {
          OFFSET -0.24384 7.07133 1.2192
          CHANNELS 3 Zrotation Xrotation Yrotation
          JOINT leftEye
          {
            OFFSET 4.14528 8.04674 8.04672
            CHANNELS 3 Zrotation Xrotation Yrotation
            End Site
            {
              OFFSET 1 0 0
            }
          }
          JOINT rightEye
          {
            OFFSET -3.6576 8.04674 8.04672
            CHANNELS 3 Zrotation Xrotation Yrotation
            End Site
            {
              OFFSET 1 0 0
            }
          }
        }
      }
      JOINT rCollar
      {
        OFFSET -2.68224 19.2634 -4.8768
        CHANNELS 3 Zrotation Xrotation Yrotation
        JOINT rShldr
        {
          OFFSET -8.77824 -1.95073 1.46304
          CHANNELS 3 Zrotation Xrotation Yrotation
          JOINT rForeArm
          {
            OFFSET -28.1742 -1.7115 0.48768
            CHANNELS 3 Zrotation Xrotation Yrotation
            JOINT rHand
            {
              OFFSET -22.5879 0.773209 7.07136
              CHANNELS 3 Zrotation Xrotation Yrotation
              JOINT rThumb1
              {
                OFFSET -1.2192 -0.487915 3.41376
                CHANNELS 3 Zrotation Xrotation Yrotation
                JOINT rThumb2
                {
                  OFFSET -3.37035 -0.52449 3.41376
                  CHANNELS 3 Zrotation Xrotation Yrotation
                  End Site
                  {
                    OFFSET -1.78271 -1.18214 1.43049
                  }
                }
              }
              JOINT rIndex1
              {
                OFFSET -7.75947 0.938293 5.60832
                CHANNELS 3 Zrotation Xrotation Yrotation
                JOINT rIndex2
                {
                  OFFSET -2.54057 -0.884171 1.56538
                  CHANNELS 3 Zrotation Xrotation Yrotation
                  End Site
                  {
                    OFFSET -1.62519 -0.234802 1.16502
                  }
                }
              }
              JOINT rMid1
              {
                OFFSET -8.24714 1.18213 3.41376
                CHANNELS 3 Zrotation Xrotation Yrotation
                JOINT rMid2
                {
                  OFFSET -3.10165 -0.590103 1.0647
                  CHANNELS 3 Zrotation Xrotation Yrotation
                  End Site
                  {
                    OFFSET -2.48547 -0.328903 0.83742
                  }
                }
              }
              JOINT rRing1
              {
                OFFSET -8.82822 0.546677 1.51678
                CHANNELS 3 Zrotation Xrotation Yrotation
                JOINT rRing2
                {
                  OFFSET -2.60934 -0.819778 -0.0198488
                  CHANNELS 3 Zrotation Xrotation Yrotation
                  End Site
                  {
                    OFFSET -2.33842 -0.294052 0.168128
                  }
                }
              }
              JOINT rPinky1
              {
                OFFSET -8.27202 -0.0477905 -0.4584
                CHANNELS 3 Zrotation Xrotation Yrotation
                JOINT rPinky2
                {
                  OFFSET -1.82734 -0.647385 -0.700984
                  CHANNELS 3 Zrotation Xrotation Yrotation
                  End Site
                  {
                    OFFSET -1.69225 -0.51767 -0.607171
                  }
                }
              }
            }
          }
        }
      }
      JOINT lCollar
      {
        OFFSET 2.68224 19.2634 -4.8768
        CHANNELS 3 Zrotation Xrotation Yrotation
        JOINT lShldr
        {
          OFFSET 8.77824 -1.95073 1.46304
          CHANNELS 3 Zrotation Xrotation Yrotation
          JOINT lForeArm
          {
            OFFSET 28.1742 -1.7115 0.48768
            CHANNELS 3 Zrotation Xrotation Yrotation
            JOINT lHand
            {
              OFFSET 22.5879 0.773209 7.07136
              CHANNELS 3 Zrotation Xrotation Yrotation
              JOINT lThumb1
              {
                OFFSET 1.2192 -0.487915 3.41376
                CHANNELS 3 Zrotation Xrotation Yrotation
                JOINT lThumb2
                {
                  OFFSET 3.37035 -0.52449 3.41376
                  CHANNELS 3 Zrotation Xrotation Yrotation
                  End Site
                  {
                    OFFSET 1.78271 -1.18214 1.43049
                  }
                }
              }
              JOINT lIndex1
              {
                OFFSET 7.75947 0.938293 5.60832
                CHANNELS 3 Zrotation Xrotation Yrotation
                JOINT lIndex2
                {
                  OFFSET 2.54057 -0.884171 1.56538
                  CHANNELS 3 Zrotation Xrotation Yrotation
                  End Site
                  {
                    OFFSET 1.62519 -0.234802 1.16502
                  }
                }
              }
              JOINT lMid1
              {
                OFFSET 8.24714 1.18213 3.41376
                CHANNELS 3 Zrotation Xrotation Yrotation
                JOINT lMid2
                {
                  OFFSET 3.10165 -0.590103 1.0647
                  CHANNELS 3 Zrotation Xrotation Yrotation
                  End Site
                  {
                    OFFSET 2.48547 -0.328903 0.83742
                  }
                }
              }
              JOINT lRing1
              {
                OFFSET 8.82822 0.546677 1.51678
                CHANNELS 3 Zrotation Xrotation Yrotation
                JOINT lRing2
                {
                  OFFSET 2.60934 -0.819778 -0.0198488
                  CHANNELS 3 Zrotation Xrotation Yrotation
                  End Site
                  {
                    OFFSET 2.33842 -0.294052 0.168128
                  }
                }
              }
              JOINT lPinky1
              {
                OFFSET 8.27202 -0.0477905 -0.4584
                CHANNELS 3 Zrotation Xrotation Yrotation
                JOINT lPinky2
                {
                  OFFSET 1.82734 -0.647385 -0.700984
                  CHANNELS 3 Zrotation Xrotation Yrotation
                  End Site
                  {
                    OFFSET 1.69225 -0.51767 -0.607171
                  }
                }
              }
            }
          }
        }
      }
    }
  }
  JOINT rButtock
  {
    OFFSET -8.77824 4.35084 1.2192
    CHANNELS 3 Zrotation Xrotation Yrotation
    JOINT rThigh
    {
      OFFSET 0 -1.70687 -2.19456
      CHANNELS 3 Zrotation Xrotation Yrotation
      JOINT rShin
      {
        OFFSET 0 -36.8199 0.73152
        CHANNELS 3 Zrotation Xrotation Yrotation
        JOINT rFoot
        {
          OFFSET 0.73152 -45.1104 -5.12064
          CHANNELS 3 Zrotation Xrotation Yrotation
          End Site
          {
            OFFSET -1.1221 -3.69964 12.103
          }
        }
      }
    }
  }
  JOINT lButtock
  {
    OFFSET 8.77824 4.35084 1.2192
    CHANNELS 3 Zrotation Xrotation Yrotation
    JOINT lThigh
    {
      OFFSET 0 -1.70687 -2.19456
      CHANNELS 3 Zrotation Xrotation Yrotation
      JOINT lShin
      {
        OFFSET 0 -36.8199 0.73152
        CHANNELS 3 Zrotation Xrotation Yrotation
        JOINT lFoot
        {
          OFFSET -0.73152 -45.1104 -5.12064
          CHANNELS 3 Zrotation Xrotation Yrotation
          End Site
          {
            OFFSET 1.1221 -3.69964 12.103
          }
        }
      }
    }
  }
}
MOTION
Frames:	5
Frame Time:	0.00833333
60.6759 85.5068 195.485 0.0 0.0 0.0 2.23598 -0.000457632 0.0604475 0.615859 0.00897855 0.106601 -5.45106e-14 0.0 1.49088e-16 -1.64448e-13 3.18055e-15 5.43552e-16 -0.0 0.0 0.0 -0.0 0.0 0.0 -2.69368e-14 1.33558e-16 2.98177e-16 -5.69565e-13 2.7395e-15 9.93923e-16 -9.85301e-12 3.04121e-12 1.20861e-13 -1.12719e-10 -2.42768e-12 1.84472e-13 -2.65905e-10 1.33041e-12 6.80639e-13 -4.5921e-10 2.29636e-12 1.18396e-12 -2.65898e-10 1.33146e-12 6.71097e-13 7.73091 5.47488 0.417314 -2.65905e-10 1.33066e-12 6.80639e-13 2.90554 0.965183 0.102902 -2.65899e-10 1.33057e-12 6.80639e-13 10.2786 0.731801 0.0259123 -2.65915e-10 1.33186e-12 6.9018e-13 2.22167 -0.733487 -0.20892 -2.70351e-14 1.39188e-16 0.0 -5.72987e-13 3.04389e-15 -3.97569e-16 -9.84794e-12 -2.85017e-12 1.36764e-13 -1.12744e-10 3.47294e-12 1.7175e-13 -2.65939e-10 1.34752e-12 6.83819e-13 -4.59251e-10 2.32499e-12 1.1943e-12 -2.65945e-10 1.34935e-12 6.93361e-13 -7.73091 5.47488 -0.417314 -2.65937e-10 1.34726e-12 6.83819e-13 -2.90554 0.965183 -0.102902 -2.65947e-10 1.34766e-12 6.8541e-13 -10.2786 0.731801 -0.0259123 -2.65933e-10 1.34895e-12 6.77458e-13 -2.22167 -0.733487 0.20892 -2.03217e-16 0.0 -3.88251e-19 2.2114 -7.80174 -0.22423 0.00522295 8.55975 0.135894 -0.54846 -0.766618 0.0461956 2.03217e-16 0.0 3.88251e-19 1.1838 -1.92859 -0.002539 0.00909209 -2.07858 0.0749906 0.513896 3.99846 -0.140593
61.3538 83.6747 182.504 -175.995 -4.0882 -177.128 2.41349 -3.40241 -1.45257 0.385927 -0.0648624 -0.466725 -0.257181 4.48547 -0.0141151 2.82998 -5.18828 0.800995 -0.0 0.0 0.0 -0.0 0.0 0.0 1.23843e-15 -1.39408e-14 -6.17432e-14 -10.8394 -23.1536 8.92896 -3.07635 -1.22816 4.9736 0.0434604 4.733 0.657525 -2.89051e-10 2.47553e-10 -6.46404e-11 -5.00156e-10 4.28708e-10 -1.10545e-10 -2.89044e-10 2.47558e-10 -6.46461e-11 7.73091 5.47488 0.417314 -2.89051e-10 2.47553e-10 -6.46356e-11 2.90554 0.965183 0.102902 -2.89045e-10 2.47552e-10 -6.46381e-11 10.2786 0.731801 0.0259123 -2.89059e-10 2.47556e-10 -6.46295e-11 2.22167 -0.733487 -0.20892 1.16103e-15 -1.39394e-14 -6.19676e-14 -21.9148 6.075 1.91581 1.32897 -0.413296 -2.23631 -0.00419386 -1.5937 0.223807 -2.52835e-10 1.90725e-10 -6.51387e-10 -4.33644e-10 3.31563e-10 -1.12619e-09 -2.52842e-10 1.90728e-10 -6.51374e-10 -7.73091 5.47488 -0.417314 -2.52834e-10 1.90725e-10 -6.51386e-10 -2.90554 0.965183 -0.102902 -2.52842e-10 1.90725e-10 -6.51384e-10 -10.2786 0.731801 -0.0259123 -2.52829e-10 1.90726e-10 -6.51393e-10 -2.22167 -0.733487 0.20892 -2.03217e-16 0.0 -3.88251e-19 -0.154734 -1.81002 8.05624 -0.0104297 4.66806 0.464519 -4.02625 -16.6226 -9.915 2.03217e-16 0.0 3.88251e-19 9.47355 -0.158915 -4.33085 0.00689774 -2.88065 0.0792199 0.15187 -7.62571 -1.83383
61.5693 83.6856 182.462 -175.326 -4.1274 -177.137 2.39393 -6.99092 -3.13596 0.165579 -0.165036 -1.09631 -0.611946 9.19763 -0.00843343 6.07048 -10.5979 1.7491 -0.0 0.0 0.0 -0.0 0.0 0.0 3.23742e-14 -2.91602e-14 -1.30251e-13 -11.4562 -45.5432 24.6219 -6.08877 -2.49041 10.2246 -0.0322869 9.84959 1.38421 -3.10652e-10 5.25013e-10 -1.25084e-10 -5.38434e-10 9.09201e-10 -2.13771e-10 -3.10645e-10 5.25023e-10 -1.25086e-10 7.73091 5.47488 0.417314 -3.10652e-10 5.25013e-10 -1.25074e-10 2.90554 0.965183 0.102902 -3.10646e-10 5.25011e-10 -1.25079e-10 10.2786 0.731801 0.0259123 -3.10657e-10 5.25018e-10 -1.25072e-10 2.22167 -0.733487 -0.20892 3.232e-14 -2.91632e-14 -1.30393e-13 -45.588 12.4091 4.04416 2.70048 -0.848823 -4.6036 0.00544204 -3.19858 0.449862 -2.54921e-10 3.9993e-10 -1.36273e-09 -4.34046e-10 6.95266e-10 -2.35615e-09 -2.54928e-10 3.99934e-10 -1.36271e-09 -7.73091 5.47488 -0.417314 -2.54919e-10 3.9993e-10 -1.36273e-09 -2.90554 0.965183 -0.102902 -2.54925e-10 3.9993e-10 -1.36272e-09 -10.2786 0.731801 -0.0259123 -2.54914e-10 3.99932e-10 -1.36273e-09 -2.22167 -0.733487 0.20892 -2.03217e-16 0.0 -3.88251e-19 -4.48302 4.32808 16.9207 0.0223991 0.481136 0.824402 -14.5786 -31.7748 -23.2349 2.03217e-16 0.0 3.88251e-19 18.5812 1.61232 -8.82099 0.00488801 -3.69424 0.0878318 -1.01556 -19.7655 -3.81913
61.7024 83.6952 182.42 -174.867 -4.1973 -177.095 2.22285 -10.1782 -4.54257 -0.0783694 -0.212467 -1.61339 -0.764754 13.4564 -0.0434073 8.93906 -15.5524 2.48415 -0.0 0.0 0.0 -0.0 0.0 0.0 5.75888e-14 -4.20897e-14 -1.85826e-13 6.0704 -58.8156 53.5497 -8.59636 -3.57359 14.9471 -0.204173 14.1914 2.02776 -3.35344e-10 7.39997e-10 -1.95282e-10 -5.82049e-10 1.28153e-09 -3.34004e-10 -3.35336e-10 7.4001e-10 -1.95281e-10 7.73091 5.47488 0.417314 -3.35344e-10 7.39997e-10 -1.95268e-10 2.90554 0.965183 0.102902 -3.35337e-10 7.39994e-10 -1.95276e-10 10.2786 0.731801 0.0259123 -3.35346e-10 7.40004e-10 -1.95269e-10 2.22167 -0.733487 -0.20892 5.75533e-14 -4.20965e-14 -1.85903e-13 -67.0151 18.1413 6.01517 3.89034 -1.23233 -6.71033 0.02488 -4.78079 0.673505 -2.26629e-10 5.69479e-10 -1.95553e-09 -3.82429e-10 9.90039e-10 -3.38095e-09 -2.26636e-10 5.69484e-10 -1.95551e-09 -7.73091 5.47488 -0.417314 -2.26627e-10 5.6948e-10 -1.95553e-09 -2.90554 0.965183 -0.102902 -2.26631e-10 5.69479e-10 -1.95552e-09 -10.2786 0.731801 -0.0259123 -2.26621e-10 5.69481e-10 -1.95553e-09 -2.22167 -0.733487 0.20892 -2.03217e-16 0.0 -3.88251e-19 -9.96556 9.19253 24.9427 0.0921808 -3.11432 1.12183 -31.2606 -41.5456 -39.7351 2.03217e-16 0.0 3.88251e-19 26.8492 3.29253 -13.0093 0.00286633 -4.4848 0.0877456 -2.9089 -30.7462 -6.02115
61.7469 83.725 182.373 -174.577 -4.2831 -177.052 2.09889 -12.3946 -5.18978 -0.376155 -0.128178 -1.8492 -0.400631 16.5817 -0.182802 10.4904 -19.3861 2.59508 -0.0 0.0 0.0 -0.0 0.0 0.0 6.80007e-14 -4.92941e-14 -2.09072e-13 27.1805 -60.1228 81.0879 -10.2782 -4.3121 18.3241 -0.350558 16.6047 2.40195 -3.67761e-10 7.98788e-10 -2.89866e-10 -6.39008e-10 1.38345e-09 -4.96759e-10 -3.67754e-10 7.98803e-10 -2.89863e-10 7.73091 5.47488 0.417314 -3.67762e-10 7.98788e-10 -2.8985e-10 2.90554 0.965183 0.102902 -3.67754e-10 7.98785e-10 -2.89859e-10 10.2786 0.731801 0.0259123 -3.67763e-10 7.98796e-10 -2.89854e-10 2.22167 -0.733487 -0.20892 6.79725e-14 -4.93033e-14 -2.09121e-13 -81.9041 22.452 7.34292 4.69457 -1.49307 -8.16434 0.0490282 -6.30647 0.889949 -1.22391e-10 6.39889e-10 -2.25199e-09 -2.00764e-10 1.11249e-09 -3.8928e-09 -1.22397e-10 6.39894e-10 -2.25197e-09 -7.73091 5.47488 -0.417314 -1.22389e-10 6.3989e-10 -2.25199e-09 -2.90554 0.965183 -0.102902 -1.22392e-10 6.39889e-10 -2.25198e-09 -10.2786 0.731801 -0.0259123 -1.22384e-10 6.39891e-10 -2.25199e-09 -2.22167 -0.733487 0.20892 -2.03217e-16 0.0 -3.88251e-19 -14.6779 11.9939 30.3381 0.147693 -5.23245 1.25723 -46.12 -44.7239 -53.4242 2.03217e-16 0.0 3.88251e-19 32.5451 4.81396 -16.4253 -7.27949e-05 -5.21777 0.0658228 -4.96133 -38.9451 -8.05496
